<?xml version="1.0" encoding="UTF-8"?>
<svg version="1.1" xmlns="http://www.w3.org/2000/svg" width="30" height="36">
<g transform="scale(0.14)">
<path d="M0 0 C1.17506607 -0.00274933 2.35013214 -0.00549866 3.56080627 -0.0083313 C5.4888636 0.00245453 5.4888636 0.00245453 7.45587158 0.01345825 C8.82590222 0.01402252 10.19593346 0.01370549 11.56596375 0.01257324 C15.28260351 0.01199935 18.99911422 0.02375954 22.71572399 0.03772116 C26.6007999 0.05022243 30.48587876 0.05139854 34.37097168 0.05377197 C41.72676341 0.05998851 49.08249571 0.07640169 56.43826127 0.09647095 C64.81303518 0.11882453 73.18781193 0.12982202 81.56260824 0.13986182 C98.78910801 0.16076776 116.01554992 0.19594713 133.24200439 0.24050903 C133.38219367 22.41515198 133.48798492 44.5897218 133.55287743 66.76471806 C133.58380966 77.06107971 133.62597819 87.35716595 133.69464111 97.65335083 C133.75446238 106.62798718 133.79315814 115.60242405 133.80653536 124.57725424 C133.81435452 129.32905263 133.83271798 134.0802804 133.87638474 138.83189583 C133.91716895 143.30617882 133.92966182 147.77965721 133.92065048 152.25410843 C133.92229854 153.89440855 133.93419947 155.5347361 133.95723724 157.17487526 C134.14331131 171.10782314 134.14331131 171.10782314 130.38693237 175.70875549 C125.18955047 180.63764642 118.24916807 179.46122674 111.55450439 179.49050903 C109.81523682 179.52144653 109.81523682 179.52144653 108.04083252 179.55300903 C94.03098184 179.61672638 94.03098184 179.61672638 88.39532471 174.59500122 C83.96281946 169.8331014 80.82435413 164.46709688 77.80450439 158.74050903 C77.33133789 157.86249634 76.85817139 156.98448364 76.3706665 156.0798645 C73.25188581 150.2565203 70.27046233 144.37112291 67.36016846 138.44143677 C64.10986707 131.86371646 60.56531372 125.45446911 57.02667236 119.02859497 C52.49962541 110.78031826 48.15473025 102.44350265 43.87017822 94.06692505 C41.29817156 89.06848145 38.63695078 84.17244038 35.75372314 79.34597778 C32.00240182 72.98731473 28.90669556 66.399959 25.86700439 59.67800903 C25.33462158 58.51720825 24.80223877 57.35640747 24.25372314 56.16043091 C20.40980757 47.74391857 20.40980757 47.74391857 19.24200439 44.24050903 C19.24476977 44.91288259 19.24753515 45.58525614 19.25038433 46.27800465 C19.31659515 62.62728619 19.36626103 78.97652535 19.39744091 95.32590961 C19.41291948 103.23230614 19.43402781 111.13861325 19.46832275 119.04495239 C19.49819493 125.93494433 19.5175722 132.82487153 19.52426988 139.71492642 C19.52818587 143.36425011 19.53740928 147.01338856 19.55919456 150.66265297 C19.5832994 154.73336684 19.5839758 158.80375727 19.58258057 162.87454224 C19.59336639 164.08870316 19.60415222 165.30286407 19.61526489 166.55381775 C19.6090789 168.21338501 19.6090789 168.21338501 19.60276794 169.90647888 C19.60553332 170.86975255 19.6082987 171.83302622 19.61114788 172.82549 C19.17355041 175.68835027 18.54646297 176.53928111 16.24200439 178.24050903 C11.8189924 179.71484636 7.49982112 179.42487875 2.86700439 179.42800903 C1.92083252 179.44025513 0.97466064 179.45250122 -0.00018311 179.46511841 C-8.70567774 179.48345864 -8.70567774 179.48345864 -12.75799561 177.24050903 C-14.62502558 175.37347906 -13.89657707 172.22805033 -13.90516663 169.73800659 C-13.90884331 169.05055965 -13.91252 168.3631127 -13.9163081 167.65483403 C-13.92738675 165.33410112 -13.93119583 163.01341292 -13.93499756 160.69265747 C-13.94125912 159.03561764 -13.94790564 157.37857922 -13.95491028 155.72154236 C-13.97235006 151.20695193 -13.98288036 146.69237211 -13.99111581 142.17775631 C-13.99626017 139.35902406 -14.00233619 136.54029515 -14.00862694 133.72156525 C-14.02768822 124.90787995 -14.04191676 116.09420308 -14.05023891 107.28050113 C-14.06001259 97.09667177 -14.08633158 86.91305971 -14.1267398 76.72930694 C-14.15687611 68.86515292 -14.17170546 61.00106125 -14.17501992 53.1368506 C-14.17737349 48.43670418 -14.18637331 43.73678964 -14.21148109 39.03670502 C-14.23472311 34.61422269 -14.23901075 30.19212552 -14.22871971 25.76959801 C-14.22822327 24.14622659 -14.23457546 22.52283647 -14.24827576 20.89952278 C-14.26593689 18.68286705 -14.25891857 16.46760215 -14.2457428 14.25094604 C-14.24813115 13.01058971 -14.2505195 11.77023338 -14.25298023 10.4922905 C-13.65870451 6.58822022 -12.54976082 4.99118344 -9.75799561 2.24050903 C-6.54956156 0.03809359 -3.83946118 -0.00693044 0 0 Z " fill="#808080" transform="translate(15.75799560546875,2.759490966796875)"/>
<path d="M0 0 C13.2 0 26.4 0 40 0 C40.66 3.63 41.32 7.26 42 11 C43.04020682 14.00786816 43.04020682 14.00786816 44.375 16.375 C44.77460937 17.14585938 45.17421875 17.91671875 45.5859375 18.7109375 C48.55159024 23.51169027 51.57787509 26.69769526 56.375 29.6875 C57.29023437 30.26886719 58.20546875 30.85023437 59.1484375 31.44921875 C63.97196916 34.07242706 68.42030262 35.2258758 73.875 35.625 C74.84179688 35.69976562 75.80859375 35.77453125 76.8046875 35.8515625 C77.52914062 35.90054688 78.25359375 35.94953125 79 36 C80.26018101 45.70644611 80.12682029 55.36457557 80.09765625 65.1328125 C80.09578819 66.97940024 80.09436612 68.82598849 80.09336853 70.6725769 C80.08957388 75.50249633 80.07977009 80.33238507 80.06866455 85.16229248 C80.05838438 90.10298243 80.05385683 95.04367741 80.04882812 99.984375 C80.03814472 109.65626339 80.0211055 119.32812913 80 129 C77.01276743 127.50638371 76.26108475 124.77900222 74.875 121.875 C70.77129255 113.4875285 66.53015546 105.17336505 62.25 96.875 C61.90097626 96.19791992 61.55195251 95.52083984 61.19235229 94.82324219 C56.42090641 85.57631145 51.54018816 76.40090304 46.51098633 67.29101562 C42.34977912 59.7218688 38.38550778 52.05649035 34.4375 44.375 C29.9771074 35.70570774 25.48627083 27.05692958 20.8125 18.5 C20.37929443 17.69997559 19.94608887 16.89995117 19.49975586 16.07568359 C16.28062536 10.23537975 13.25920236 4.91125691 7 2 C3.30476048 1.28076792 3.30476048 1.28076792 0 1 C0 0.67 0 0.34 0 0 Z " fill="#A9A9A9" transform="translate(38,3)"/>
<path d="M0 0 C23.43 0 46.86 0 71 0 C71 10.84270683 68.02655173 19.20330056 60.32421875 27.01953125 C50.60967561 35.29730163 40.64028944 36.20178872 28.32592773 35.33422852 C20.11637469 34.15454151 13.35871638 29.94985046 8.046875 23.703125 C2.23746197 15.8433309 0 9.7881504 0 0 Z " fill="#696969" transform="translate(78,3)"/>
<path d="M0 0 C1.25683594 0.00322266 2.51367188 0.00644531 3.80859375 0.00976562 C5.12730469 0.01814453 6.44601563 0.02652344 7.8046875 0.03515625 C9.14452961 0.04017136 10.4843735 0.04473424 11.82421875 0.04882812 C15.10941956 0.06064539 18.39453147 0.07712008 21.6796875 0.09765625 C22.01148491 9.73014986 19.2390755 17.39378447 13.1171875 24.97265625 C8.32634901 29.94462285 1.61281334 34.75917411 -5.4765625 35.24560547 C-7.42509953 35.24946481 -9.3734901 35.17947314 -11.3203125 35.09765625 C-11.39449296 30.73774752 -11.44892794 26.37817346 -11.48510742 22.01782227 C-11.50019018 20.53468426 -11.52065939 19.05159081 -11.54663086 17.56860352 C-11.58303866 15.4362488 -11.60004323 13.3044839 -11.61328125 11.171875 C-11.6289917 9.88885498 -11.64470215 8.60583496 -11.66088867 7.28393555 C-11.3203125 4.09765625 -11.3203125 4.09765625 -9.92700195 2.21801758 C-6.52646325 -0.15321356 -4.12227867 -0.01856882 0 0 Z " fill="#696969" transform="translate(127.3203125,2.90234375)"/>
</g>
</svg>
