<svg width="40" height="40" viewBox="0 0 49 49" fill="none" xmlns="http://www.w3.org/2000/svg">
<circle cx="24.5" cy="24.5" r="24.5" fill="#003C73"/>
<g clip-path="url(#clip0_111_723)">
<path d="M36.85 38.125L26.6125 27.8875C25.8 28.5375 24.8656 29.0521 23.8094 29.4312C22.7531 29.8104 21.6292 30 20.4375 30C17.4854 30 14.987 28.9776 12.9422 26.9328C10.8974 24.888 9.875 22.3896 9.875 19.4375C9.875 16.4854 10.8974 13.987 12.9422 11.9422C14.987 9.8974 17.4854 8.875 20.4375 8.875C23.3896 8.875 25.888 9.8974 27.9328 11.9422C29.9776 13.987 31 16.4854 31 19.4375C31 20.6292 30.8104 21.7531 30.4312 22.8094C30.0521 23.8656 29.5375 24.8 28.8875 25.6125L39.125 35.85L36.85 38.125ZM20.4375 26.75C22.4688 26.75 24.1953 26.0391 25.6172 24.6172C27.0391 23.1953 27.75 21.4688 27.75 19.4375C27.75 17.4062 27.0391 15.6797 25.6172 14.2578C24.1953 12.8359 22.4688 12.125 20.4375 12.125C18.4062 12.125 16.6797 12.8359 15.2578 14.2578C13.8359 15.6797 13.125 17.4062 13.125 19.4375C13.125 21.4688 13.8359 23.1953 15.2578 24.6172C16.6797 26.0391 18.4062 26.75 20.4375 26.75Z" fill="white"/>
<path d="M36.85 38.125L26.6125 27.8875C25.8 28.5375 24.8656 29.0521 23.8094 29.4312C22.7531 29.8104 21.6292 30 20.4375 30C17.4854 30 14.987 28.9776 12.9422 26.9328C10.8974 24.888 9.875 22.3896 9.875 19.4375C9.875 16.4854 10.8974 13.987 12.9422 11.9422C14.987 9.8974 17.4854 8.875 20.4375 8.875C23.3896 8.875 25.888 9.8974 27.9328 11.9422C29.9776 13.987 31 16.4854 31 19.4375C31 20.6292 30.8104 21.7531 30.4312 22.8094C30.0521 23.8656 29.5375 24.8 28.8875 25.6125L39.125 35.85L36.85 38.125ZM20.4375 26.75C22.4688 26.75 24.1953 26.0391 25.6172 24.6172C27.0391 23.1953 27.75 21.4688 27.75 19.4375C27.75 17.4062 27.0391 15.6797 25.6172 14.2578C24.1953 12.8359 22.4688 12.125 20.4375 12.125C18.4062 12.125 16.6797 12.8359 15.2578 14.2578C13.8359 15.6797 13.125 17.4062 13.125 19.4375C13.125 21.4688 13.8359 23.1953 15.2578 24.6172C16.6797 26.0391 18.4062 26.75 20.4375 26.75Z" fill="white"/>
</g>
<defs>
<clipPath id="clip0_111_723">
<rect width="39" height="39" fill="white" transform="translate(5 4)"/>
</clipPath>
</defs>
</svg>
