<svg width="30" height="30" viewBox="0 0 28 28" fill="none" xmlns="http://www.w3.org/2000/svg">
<path d="M3.11111 24.8889H5.32778L20.5333 9.68333L18.3167 7.46667L3.11111 22.6722V24.8889ZM0 28V21.3889L20.5333 0.894444C20.8444 0.609259 21.188 0.388889 21.5639 0.233333C21.9398 0.0777778 22.3352 0 22.75 0C23.1648 0 23.5667 0.0777778 23.9556 0.233333C24.3444 0.388889 24.6815 0.622222 24.9667 0.933333L27.1056 3.11111C27.4167 3.3963 27.6435 3.73333 27.7861 4.12222C27.9287 4.51111 28 4.9 28 5.28889C28 5.7037 27.9287 6.09907 27.7861 6.475C27.6435 6.85093 27.4167 7.19444 27.1056 7.50556L6.61111 28H0ZM19.4056 8.59445L18.3167 7.46667L20.5333 9.68333L19.4056 8.59445Z" fill="#03335F"/>
</svg>
