<svg xmlns="http://www.w3.org/2000/svg" xmlns:xlink="http://www.w3.org/1999/xlink" width="280.881" height="212.143" viewBox="0 0 280.881 212.143"><defs><style>.a{opacity:0.858;}.aa,.aj,.am,.b,.c,.h,.n,.q,.r,.s{fill:none;}.b,.c,.d{stroke:#c0ccdF;}.b,.d,.x{stroke-linejoin:round;}.aa,.aj,.am,.c,.h,.n,.q,.r{stroke-miterlimit:10;}.c{stroke-width:3px;}.d,.y{fill:#c0ccdF;}.e{fill:#c0ccd8;}.f{fill:#475577;}.g{fill:#717a91;}.h{stroke:#544943;stroke-width:1.5px;}.ad,.i{opacity:0.45;}.ad,.j{fill:#00000;}.k{fill:#eab080;}.l{fill:#eaae7d;}.m{fill:#00000;}.n{stroke:#1C1C1C;}.o{fill:#ffcbbb;}.p{fill:#003C73;}.q,.r{stroke:#005F89;}.r{stroke-dasharray:3 2;}.s,.x{stroke:#1C1C1C;}.t{fill:#eaac79;}.u{fill:#eaaa75;}.v,.x{fill:#aaeeff;}.w{fill:#00000;}.z{fill:#784723;}.aa{stroke:#d59057;}.ab{fill:#74421c;}.ac{fill:#784723;}.ae{fill:#c0ccdF;}.af{opacity:0.65;}.ag{opacity:0.55;fill:url(#a);}.ah{fill:#c0ccdF;}.ai{fill:#8ebca2;}.aj{stroke:#597f6e;}.ak{fill:#a2ccb6;}.al{fill:#784723;}.am{stroke:#475577;stroke-width:2px;}</style><linearGradient id="a" x1="0.5" y1="1" x2="0.5" gradientUnits="objectBoundingBox"><stop offset="0" stop-color="#c0ccdF" stop-opacity="0.102"/><stop offset="1" stop-color="#c0ccdF" stop-opacity="0.4"/></linearGradient></defs><g class="a" transform="translate(-105.915 -55.177)"><g transform="translate(138.161 55.677)"><g transform="translate(0 35.424)"><rect class="b" width="21.563" height="21.563" rx="5.12"/><g transform="translate(4.606 4.606)"><circle class="c" cx="6.176" cy="6.176" r="6.176"/><line class="c" x1="8.719" y2="8.719" transform="translate(1.626 1.816)"/></g></g><path class="d" d="M414.4,107.758l-4.472-4.634H341.106a5.831,5.831,0,0,1-5.831-5.831V61.508a5.831,5.831,0,0,1,5.831-5.831h69.134a5.831,5.831,0,0,1,5.831,5.831v45.576A.97.97,0,0,1,414.4,107.758Z" transform="translate(-249.89 -55.677)"/><g id="status" transform="translate(92.195 9.38)"></g><g transform="translate(226.572 98.204)"><rect class="b" width="21.563" height="21.563" rx="5.12"/><g transform="translate(3.305 3.723)"><path class="e" d="M614.41,255.52a.773.773,0,0,1-.258.044l-13.383,0a.784.784,0,0,1-.68-1.177l6.688-11.592a.784.784,0,0,1,1.359,0l6.7,11.588a.784.784,0,0,1-.421,1.133Zm-13.273-.949,12.645,0-6.327-10.949Z" transform="translate(-599.984 -242.406)"/><path class="e" d="M613.058,255.653h0a.474.474,0,0,1-.473-.453l-.271-4.561a.743.743,0,0,1,.742-.777h0a.743.743,0,0,1,.743.776l-.268,4.562A.474.474,0,0,1,613.058,255.653Z" transform="translate(-605.583 -245.793)"/><path class="e" d="M613.76,262.085a.483.483,0,1,1-.482-.482A.482.482,0,0,1,613.76,262.085Z" transform="translate(-605.802 -251.124)"/></g></g></g><g transform="translate(126.902 95.605)"><g transform="translate(22.735 36.245)"><path class="f" d="M267.386,267l-10.943-71.777h-49.29l11.815,76.058a10.311,10.311,0,0,0,10.4,8.783h82.878l.61-6.969H274.582A7.129,7.129,0,0,1,267.386,267Z" transform="translate(-203.181 -195.226)"/><path class="g" d="M217.431,267l-10.538-69.12a3.109,3.109,0,0,0-3.138-2.657h-.1a3.824,3.824,0,0,0-3.742,4.284l11.15,71.774a10.311,10.311,0,0,0,10.4,8.783h53.38l.61-6.969H224.627A7.129,7.129,0,0,1,217.431,267Z" transform="translate(-199.876 -195.226)"/><g transform="translate(25.464 84.84)"><g transform="translate(25.457)"><line class="h" y2="39.179"/></g><g transform="translate(0 39.18)"><g transform="translate(3.494)"><path class="h" d="M252.926,425.89h0a3.461,3.461,0,0,1,3.461-3.461h37a3.461,3.461,0,0,1,3.461,3.461h0" transform="translate(-252.926 -422.429)"/></g><g transform="translate(21.671)"><path class="h" d="M286.226,425.89h0a3.46,3.46,0,0,1,3.461-3.461" transform="translate(-286.226 -422.429)"/></g><g transform="translate(0 3.461)"><path class="g" d="M253.514,432.264a3.494,3.494,0,1,1-3.495-3.495A3.494,3.494,0,0,1,253.514,432.264Z" transform="translate(-246.525 -428.769)"/><g class="i" transform="translate(2.211 2.211)"><path class="j" d="M253.142,434.1a1.284,1.284,0,1,1-1.284-1.284A1.284,1.284,0,0,1,253.142,434.1Z" transform="translate(-250.575 -432.819)"/></g></g><g transform="translate(18.176 3.461)"><path class="g" d="M286.813,432.264a3.494,3.494,0,1,1-3.494-3.495A3.494,3.494,0,0,1,286.813,432.264Z" transform="translate(-279.824 -428.769)"/></g><g class="i" transform="translate(20.387 5.671)"><path class="j" d="M286.441,434.1a1.284,1.284,0,1,1-1.283-1.284A1.284,1.284,0,0,1,286.441,434.1Z" transform="translate(-283.874 -432.819)"/></g><g transform="translate(43.926 3.461)"><path class="g" d="M333.986,432.264a3.494,3.494,0,1,1-3.494-3.495A3.494,3.494,0,0,1,333.986,432.264Z" transform="translate(-326.997 -428.769)"/><g class="i" transform="translate(2.211 2.211)"><path class="j" d="M333.614,434.1a1.284,1.284,0,1,1-1.283-1.284A1.284,1.284,0,0,1,333.614,434.1Z" transform="translate(-331.047 -432.819)"/></g></g></g></g></g><g transform="translate(0)"><g transform="translate(74.766 18.469)"><path class="k" d="M363.737,193.812l12.493-18.665,3.871.806c-2.957,9.962-4.912,13.9-4.912,13.9" transform="translate(-326.323 -168.331)"/><path class="l" d="M387.285,173.373l1.991-3.09a33.63,33.63,0,0,0,5.054-1.54,5.571,5.571,0,0,0,2.62-2.936c.288-.789.163-3.107-.175-3.144-.8-.087-2.386,2.882-3.131,3.058s-3.158-.007-4.485.167a4.367,4.367,0,0,0-3.177,2.385l-2.042,3.7" transform="translate(-335.499 -162.661)"/><path class="m" d="M378.7,182.514l2.194-3.18,5.674,2.546-1.8,4.831" transform="translate(-333.116 -170.233)"/><path class="m" d="M295.2,171.938a16.685,16.685,0,0,1,17.4,2.992c8.147,7.248,13.661,13.982,16.651,16.161l12.275-14.12,6.857,3.219c-1.808,10.226-6.882,26.535-19.3,28.213-13.434,1.817-33.131-14.741-33.131-14.741" transform="translate(-295.195 -166.31)"/><line class="n" y1="4.691" x2="3.983" transform="translate(30.066 24.781)"/></g><path class="f" d="M385.322,430.759l-1.037,3.988a1.529,1.529,0,0,0,1.48,1.914h12.085a1.316,1.316,0,0,0,1.316-1.316h0a1.316,1.316,0,0,0-.916-1.254l-8.26-3.333" transform="translate(-260.866 -265.947)"/><path class="o" d="M373.238,316.619c-1.93,20.279,6.966,62.3,6.966,62.3a3,3,0,0,0,4.668,0s2.143-40.069,4.4-58.084" transform="translate(-255.748 -214.111)"/><path class="p" d="M301.055,273.1l13.869,7.274v.141s28.3-1.9,32.585,8.205c6.7,15.822,7.843,67.288,7.843,67.288H334.636s-7.71-43.228-10.346-45.864S310.784,307.7,290.8,307.7c-22.451,0-11.491-28.946-3.133-31.43" transform="translate(-212.393 -194.348)"/><path class="q" d="M349.612,383.308s-6.156-44.605-10.681-47.876c-5.525-3.994-31.614-1.385-31.614-1.385" transform="translate(-225.935 -221.645)"/><path class="f" d="M305.742,430.759l-1.037,3.988a1.529,1.529,0,0,0,1.48,1.914h12.085a1.316,1.316,0,0,0,1.316-1.316h0a1.315,1.315,0,0,0-.916-1.254l-8.26-3.333" transform="translate(-224.726 -265.947)"/><path class="o" d="M308.66,316.619c-1.93,20.279-2.013,62.3-2.013,62.3a3,3,0,0,0,4.669,0s7.271-40.069,9.529-58.084" transform="translate(-225.63 -214.111)"/><g transform="translate(46.311 76.693)"><path class="p" d="M260.953,277.756s36.382.586,41.141,11.61c5.853,13.556-3.794,64.93-3.794,64.93H276.37v-45.96a1.623,1.623,0,0,0-1.587-1.667c-3.037.081-9.813.081-18.418.081-22.451,0-11.491-34.94-3.133-37.424" transform="translate(-243.068 -269.325)"/><path class="q" d="M275.834,284.77s36.382.586,41.141,11.61c1.586,3.674,2.41,9.929,1.986,17.383" transform="translate(-257.948 -276.339)"/><path class="q" d="M282.158,354.3s.222-46.137-.837-48.6c-1.472-3.425-6.5-1.743-18.163-1.743-22.451,0-13.3-32.142-4.946-34.625" transform="translate(-245.798 -269.325)"/><path class="q" d="M250.227,285.8s11.526.28,13.272-1.467,0-9.662,0-9.662" transform="translate(-246.319 -271.753)"/><path class="r" d="M249.71,288.62s13.158.28,15.152-1.469,0-9.677,0-9.677" transform="translate(-246.084 -273.026)"/></g><g transform="translate(46.82 21.742)"><path class="m" d="M244.895,184.013s-2.762,49.071,1.42,49.071,50.67-.141,53.395-.141-3.651-41.965-12.834-50.829c0,0-13.619-14.777-19.62-13.362S244.895,184.013,244.895,184.013Z" transform="translate(-244 -168.656)"/><path class="s" d="M5.773,23.663,0,0" transform="translate(46.986 14.014)"/></g><g transform="translate(0 20.505)"><path class="t" d="M188.942,197.541l-12.494-18.665-3.87.806c2.957,9.962,4.911,13.9,4.911,13.9" transform="translate(-164.744 -172.06)"/><path class="u" d="M168.051,177.1l-1.991-3.09a33.633,33.633,0,0,1-5.054-1.54,5.573,5.573,0,0,1-2.62-2.936c-.288-.789-.163-3.107.175-3.144.8-.087,2.387,2.882,3.131,3.058s3.158-.007,4.484.167A4.366,4.366,0,0,1,169.353,172l2.043,3.7" transform="translate(-158.226 -166.39)"/><path class="v" d="M181.052,186.243l-2.194-3.18-5.673,2.546,1.8,4.831" transform="translate(-165.019 -173.962)"/><path class="w" d="M230.431,171.409a15.269,15.269,0,0,0-18.583,1.483c-8.8,7.441-14.66,22.458-16.628,22.458-1.366,0-9.831-10.8-14.885-17.4l-6.012,3.213c3.788,11.568,12.048,31.246,24.407,31.246,9.7,0,29.607-22.714,29.607-22.714" transform="translate(-165.537 -167.536)"/><path class="s" d="M0,12.287,14.734,0" transform="translate(46.919 25.317)"/></g><g transform="translate(61.653)"><path class="x" d="M278.723,174.385l8.785,9.412,1.15-10.881" transform="translate(-274.602 -148.849)"/><path class="t" d="M284.5,158.072l2.472,5.415s1,3.1-3.124,4.509a6.879,6.879,0,0,1-7.283-1.581l-.652-8.5" transform="translate(-273.328 -142.036)"/><path class="y" d="M275.707,167.814s3.251,4.074,7.52,4.677l-3.1,4.6c-2.513-1.415-5.584-6.907-5.584-6.907Z" transform="translate(-272.703 -146.532)"/><path class="y" d="M293.318,166.761a10.97,10.97,0,0,1-2.865,5.252l3.532,2.67a15.438,15.438,0,0,0,.718-5.109Z" transform="translate(-279.929 -146.053)"/><path class="t" d="M288.388,139.469s2.333,8.932-1.169,11.189-9.595-1.177-9.946-2.3-1.943-10.657.342-11.372C281.677,135.717,287.2,135.661,288.388,139.469Z" transform="translate(-273.55 -132.179)"/><g transform="translate(7.258 7.52)"><path class="z" d="M297.47,147.2a.456.456,0,1,1-.547-.34A.456.456,0,0,1,297.47,147.2Z" transform="translate(-289.965 -144.529)"/><path class="z" d="M295.5,142.607c.154.022.839.093.694.432-.064.15-.3.146-.437.139a1.052,1.052,0,0,0-.414.018.487.487,0,0,1,.087.139c.041.1-.3.112-.334.112a1.824,1.824,0,0,0-1.152.212A1.523,1.523,0,0,1,295.5,142.607Z" transform="translate(-288.77 -142.602)"/><path class="z" d="M287.934,149.353a.455.455,0,1,0,.43-.48A.455.455,0,0,0,287.934,149.353Z" transform="translate(-286.043 -145.45)"/><path class="z" d="M285.011,145.691c-.329.177-.6.416-.53.69.059.219.275.162.408.056a2.362,2.362,0,0,1,.745-.4.5.5,0,0,0-.181.41,1.939,1.939,0,0,0,1.684-1.668,3.246,3.246,0,0,1-.638.438C286.021,145.44,285.489,145.434,285.011,145.691Z" transform="translate(-284.47 -143.591)"/><path class="aa" d="M293.058,148.465s1.243,3.133.8,3.407a6.019,6.019,0,0,1-2,.234" transform="translate(-287.823 -145.265)"/></g><path class="aa" d="M288.6,162.7a7.149,7.149,0,0,1-6.664-1.121" transform="translate(-276.063 -143.698)"/><path class="aa" d="M290.453,158.638s.315-1.382,2.588-1.382" transform="translate(-279.929 -141.737)"/><path class="ab" d="M287.987,131.32a1.926,1.926,0,0,0-.4-1.186,1.841,1.841,0,0,0-1.36-.43,8.186,8.186,0,0,0-4.813,1.535l1.142-.993c.3-.263.976-.676.651-1.165-.286-.431-1.1-.186-1.514-.191a15.5,15.5,0,0,0-5.638,1.362,14.307,14.307,0,0,0-2.582,1.2,4.885,4.885,0,0,0-1.9,2.067,5.891,5.891,0,0,0-.4,2.446,29.983,29.983,0,0,0,.48,4.46c.255,1.612.642,4.79,2.808,4.983a1.778,1.778,0,0,0,1.221-.184,1.542,1.542,0,0,0,.505-1.1,5.623,5.623,0,0,0-.127-2.016c.406.22.789.587,1.245.521a.438.438,0,0,0,.357-.247.618.618,0,0,0,.014-.287c-.169-1.544-.262-3.079-.361-4.629q3.324-.7,6.685-1.21a5.565,5.565,0,0,0,2.816-.955C287.919,134.374,288.107,132.752,287.987,131.32Z" transform="translate(-271.173 -128.825)"/><path class="l" d="M278.653,152.941c-.368-.908-1.011-2-2.018-1.386a1.972,1.972,0,0,0-.693,1.134c-.461,1.5.615,3.813,2.087,3.6.718-.1,1.116-.956,1.408-1.659" transform="translate(-273.29 -139.066)"/></g></g></g><g transform="translate(134.067 114.715)"><g transform="translate(0 67.55)"><line class="h" y1="84.055" x2="17.531"/><line class="h" x1="17.531" y1="84.055" transform="translate(17.531)"/></g><g transform="translate(177.061 67.55)"><line class="h" y1="84.055" x2="17.531"/><line class="h" x1="17.531" y1="84.055" transform="translate(17.531)"/></g><rect class="ac" width="209.403" height="5.029" transform="translate(0.567 62.521)"/><g transform="translate(123.756 0)"><path class="f" d="M474.193,216.768h-74a2.122,2.122,0,0,1-2.089-2.493l8.5-47.824a3.173,3.173,0,0,1,3.125-2.618h74a2.121,2.121,0,0,1,2.089,2.492l-8.5,47.825A3.174,3.174,0,0,1,474.193,216.768Z" transform="translate(-398.071 -163.833)"/><path class="e" d="M477.343,216.768h-74a2.121,2.121,0,0,1-2.088-2.493l8.5-47.824a3.174,3.174,0,0,1,3.125-2.618h74a2.121,2.121,0,0,1,2.089,2.492l-8.5,47.825A3.174,3.174,0,0,1,477.343,216.768Z" transform="translate(-399.502 -163.833)"/><path class="ad" d="M479.154,235.373h-42.74a1.225,1.225,0,0,1-1.206-1.44l4.911-27.622a1.833,1.833,0,0,1,1.805-1.512h42.74a1.225,1.225,0,0,1,1.206,1.439l-4.911,27.622A1.833,1.833,0,0,1,479.154,235.373Z" transform="translate(-414.928 -182.437)"/><path class="ae" d="M481.029,235.373h-42.74a1.225,1.225,0,0,1-1.206-1.44l4.911-27.622a1.833,1.833,0,0,1,1.8-1.512h42.74a1.225,1.225,0,0,1,1.206,1.439l-4.911,27.622A1.834,1.834,0,0,1,481.029,235.373Z" transform="translate(-415.779 -182.437)"/><rect class="j" width="17.346" height="16.245" transform="translate(38.431 36.69)"/><path class="f" d="M484.828,231.049H468.475v4.667l4.465,18.526H490.3Zm-4.2,18.25c-1.944,0-4-2.267-4.59-5.063s.5-5.064,2.449-5.064,4,2.267,4.591,5.064S482.574,249.3,480.63,249.3Z" transform="translate(-430.045 -194.359)"/><path class="f" d="M448.755,273.538h38.857v2.638h-41.5A2.638,2.638,0,0,1,448.755,273.538Z" transform="translate(-419.89 -213.655)"/><rect class="e" width="31.064" height="2.639" transform="translate(36.657 59.883)"/><path class="e" d="M485.831,231.049H468.475l5.468,23.193H491.3Zm-4.26,18.25c-1.944,0-4-2.267-4.591-5.063s.5-5.064,2.449-5.064,4,2.267,4.59,5.064S483.515,249.3,481.571,249.3Z" transform="translate(-430.045 -194.359)"/><g class="af" transform="translate(14.229 4.71)"><path class="j" d="M425.166,172.461l-1.028,5.781h1.028l1.028-5.781Z" transform="translate(-424.139 -172.461)"/><path class="j" d="M430.616,172.461l-1.028,5.781h1.028l1.028-5.781Z" transform="translate(-426.614 -172.461)"/><path class="j" d="M436.066,172.461l-1.028,5.781h1.028l1.028-5.781Z" transform="translate(-429.089 -172.461)"/><path class="j" d="M441.516,172.461l-1.028,5.781h1.028l1.028-5.781Z" transform="translate(-431.564 -172.461)"/><path class="j" d="M446.966,172.461l-1.028,5.781h1.028l1.028-5.781Z" transform="translate(-434.039 -172.461)"/></g><g class="af" transform="translate(53.274 4.71)"><path class="j" d="M496.7,172.461l-1.028,5.781H496.7l1.028-5.781Z" transform="translate(-495.668 -172.461)"/><path class="j" d="M502.423,172.461l-1.028,5.781h1.028l1.028-5.781Z" transform="translate(-498.269 -172.461)"/><path class="j" d="M508.15,172.461l-1.028,5.781h1.028l1.028-5.781Z" transform="translate(-500.87 -172.461)"/><path class="j" d="M513.877,172.461l-1.028,5.781h1.028l1.028-5.781Z" transform="translate(-503.471 -172.461)"/><path class="j" d="M519.6,172.461l-1.028,5.781H519.6l1.028-5.781Z" transform="translate(-506.072 -172.461)"/><path class="j" d="M525.331,172.461l-1.028,5.781h1.028l1.028-5.781Z" transform="translate(-508.673 -172.461)"/><path class="j" d="M531.058,172.461l-1.028,5.781h1.028l1.028-5.781Z" transform="translate(-511.273 -172.461)"/><path class="j" d="M536.785,172.461l-1.028,5.781h1.028l1.028-5.781Z" transform="translate(-513.874 -172.461)"/><path class="j" d="M542.512,172.461l-1.028,5.781h1.028l1.028-5.781Z" transform="translate(-516.475 -172.461)"/><path class="j" d="M548.239,172.461l-1.028,5.781h1.028l1.028-5.781Z" transform="translate(-519.076 -172.461)"/></g></g><g transform="translate(53.845 34.349)"><path class="ag" d="M279.023,241.828a1.248,1.248,0,0,0,.679-.362c.406-.563-.266-1.16-.7-1.439-.56-.358-1.332-.48-1.6-1.169a1.837,1.837,0,0,1,.865-2.061,8.676,8.676,0,0,1,1.778-.764,3.445,3.445,0,0,0,1.753-1.293,5.753,5.753,0,0,0,.459-2.7c.253-3.484,3.814-5.211,6.815-5.282,1.5-.035,3.791.5,4.788,1.668a2.97,2.97,0,0,1,.685,1.363,2.476,2.476,0,0,1-.667,2.1c-.514.589-1.222.932-1.784,1.462-.582.548-.168,1.126-.3,1.778-.148.726-.635,1.036-1.266,1.388a19.28,19.28,0,0,1-4.347,1.331,3.485,3.485,0,0,0-1.271.572,6.993,6.993,0,0,0-1.1,1.442,4.546,4.546,0,0,1-2.727,1.749" transform="translate(-273.315 -226.76)"/><g transform="translate(11.208 15.46)"><path class="ah" d="M293.372,263.46h-2.846V262.1h2.846a1.664,1.664,0,0,0,1.662-1.663V258.1a1.664,1.664,0,0,0-1.662-1.662h-2.846v-1.357h2.846a3.023,3.023,0,0,1,3.019,3.019v2.339A3.023,3.023,0,0,1,293.372,263.46Z" transform="translate(-290.526 -255.082)"/></g><path class="ah" d="M0,0H11.483a0,0,0,0,1,0,0V8.131a5.741,5.741,0,0,1-5.741,5.741h0A5.741,5.741,0,0,1,0,8.131V0A0,0,0,0,1,0,0Z" transform="translate(1.859 13.537)"/><path class="ae" d="M269.994,273.424s.111,2.7,4.308,2.7h6.583c4.2,0,4.308-2.7,4.308-2.7Z" transform="translate(-269.994 -247.952)"/></g><g transform="translate(85.372 60.571)"><rect class="f" width="60.743" height="1.08" transform="translate(0 0.871)"/><rect class="f" width="4.353" height="0.871" transform="translate(2.077)"/><rect class="f" width="4.353" height="0.871" transform="translate(8.666)"/><rect class="f" width="4.353" height="0.871" transform="translate(15.255)"/><rect class="f" width="4.353" height="0.871" transform="translate(21.844)"/><rect class="f" width="4.353" height="0.871" transform="translate(28.434)"/><rect class="f" width="4.353" height="0.871" transform="translate(35.023)"/><rect class="f" width="4.353" height="0.871" transform="translate(41.612)"/><rect class="f" width="4.353" height="0.871" transform="translate(48.201)"/><rect class="f" width="4.353" height="0.871" transform="translate(54.79)"/><g transform="translate(0.795)"><rect class="e" width="60.743" height="1.08" transform="translate(0 0.871)"/><rect class="e" width="4.353" height="0.871" transform="translate(2.077)"/><rect class="e" width="4.353" height="0.871" transform="translate(8.666)"/><rect class="e" width="4.353" height="0.871" transform="translate(15.255)"/><rect class="e" width="4.353" height="0.871" transform="translate(21.844)"/><rect class="e" width="4.353" height="0.871" transform="translate(28.434)"/><rect class="e" width="4.353" height="0.871" transform="translate(35.023)"/><rect class="e" width="4.353" height="0.871" transform="translate(41.612)"/><rect class="e" width="4.353" height="0.871" transform="translate(48.201)"/><rect class="e" width="4.353" height="0.871" transform="translate(54.79)"/></g></g></g><g transform="translate(107.169 197.66)"><path class="ai" d="M161.575,338.937a13.26,13.26,0,0,0-7.455-15.351,21.38,21.38,0,0,1-3.425-1.575,30.553,30.553,0,0,0-.279,4.5,13.087,13.087,0,0,0,.665,4.391c1.334,3.606,4.956,5.824,8.526,7.253" transform="translate(-134.945 -318.614)"/><path class="aj" d="M167.146,354.028c-.123-3.469.005-8.94-.838-11.949a18.718,18.718,0,0,0-4.454-8.134" transform="translate(-140.14 -324.033)"/><path class="ai" d="M140.22,376.588a15.545,15.545,0,0,0-6.2-10.486,15.37,15.37,0,0,0-5.587-2.526,50.449,50.449,0,0,0-6.356.011,25.5,25.5,0,0,0,2.394,5.73c3,4.332,8.248,7.625,15.751,7.27" transform="translate(-122.075 -337.439)"/><path class="ak" d="M138.1,350.827a29.106,29.106,0,0,0-1.367-7.377,12.132,12.132,0,0,0-1.205-2.75c-1.724-2.738-4.953-4.019-8.058-4.582-.038,2.644.265,5.423,1.717,7.6a14.072,14.072,0,0,0,2.331,2.529c1.685,1.528,4.772,3.218,6.582,4.585" transform="translate(-124.523 -325.02)"/><path class="ak" d="M178.866,332.463c-.486-3.339-.937-6.925.582-9.939a11.942,11.942,0,0,1,2.163-2.9c2.04-2.1,4.71-3.837,7.638-3.842a13.488,13.488,0,0,1-1.756,9.148c-1.647,2.711-5.609,6.555-8.627,7.528" transform="translate(-147.657 -315.787)"/><path class="ak" d="M169.422,373.335a11.655,11.655,0,0,0,13.9-9.757.371.371,0,0,0-.435-.512c-5.367-.027-12.032,5.1-13.467,10.27" transform="translate(-143.577 -337.258)"/><path class="ak" d="M148.19,349.023a15.038,15.038,0,0,0,7.347-12.895,8.617,8.617,0,0,0-6.985,3.48c-1.936,2.357-2.1,6.5-.362,9.414" transform="translate(-133.388 -325.02)"/><path class="ak" d="M154.51,364.632a9.764,9.764,0,0,1,9.016-13.4.422.422,0,0,1,.36.119.412.412,0,0,1,.055.225,11.353,11.353,0,0,1-2.787,7.476,30.363,30.363,0,0,1-6.132,5.341" transform="translate(-136.495 -331.883)"/><path class="aj" d="M177.737,332.206c-3.433,3.273-5.372,7.8-6.82,12.317-3.814,11.9-4.816,24.487-5.791,36.944" transform="translate(-141.626 -323.244)"/><path class="aj" d="M154.76,378a18.41,18.41,0,0,1,.993-7.638" transform="translate(-136.884 -340.572)"/><path class="aj" d="M152.877,343.037c-2.788,2.488-4.409,9.254-2.929,14.226" transform="translate(-134.479 -328.162)"/><path class="aj" d="M148.508,383.542c-.136-11.437-2.8-25.7-11.305-34.849" transform="translate(-128.945 -330.731)"/><path class="al" d="M166.871,392.877v4.363c0,17.3-5.735,22.218-5.735,22.218H143.378s-5.735-4.92-5.735-22.218v-4.363Z" transform="translate(-129.145 -350.797)"/></g><line class="am" x2="278.63" transform="translate(105.915 266.32)"/></g></svg>