<?xml version="1.0" encoding="UTF-8"?>
<svg version="1.1" xmlns="http://www.w3.org/2000/svg" width="483" height="183">
<path d="M0 0 C1.17506607 -0.00274933 2.35013214 -0.00549866 3.56080627 -0.0083313 C5.4888636 0.00245453 5.4888636 0.00245453 7.45587158 0.01345825 C8.82590222 0.01402252 10.19593346 0.01370549 11.56596375 0.01257324 C15.28260351 0.01199935 18.99911422 0.02375954 22.71572399 0.03772116 C26.6007999 0.05022243 30.48587876 0.05139854 34.37097168 0.05377197 C41.72676341 0.05998851 49.08249571 0.07640169 56.43826127 0.09647095 C64.81303518 0.11882453 73.18781193 0.12982202 81.56260824 0.13986182 C98.78910801 0.16076776 116.01554992 0.19594713 133.24200439 0.24050903 C133.38219367 22.41515198 133.48798492 44.5897218 133.55287743 66.76471806 C133.58380966 77.06107971 133.62597819 87.35716595 133.69464111 97.65335083 C133.75446238 106.62798718 133.79315814 115.60242405 133.80653536 124.57725424 C133.81435452 129.32905263 133.83271798 134.0802804 133.87638474 138.83189583 C133.91716895 143.30617882 133.92966182 147.77965721 133.92065048 152.25410843 C133.92229854 153.89440855 133.93419947 155.5347361 133.95723724 157.17487526 C134.14331131 171.10782314 134.14331131 171.10782314 130.38693237 175.70875549 C125.18955047 180.63764642 118.24916807 179.46122674 111.55450439 179.49050903 C109.81523682 179.52144653 109.81523682 179.52144653 108.04083252 179.55300903 C94.03098184 179.61672638 94.03098184 179.61672638 88.39532471 174.59500122 C83.96281946 169.8331014 80.82435413 164.46709688 77.80450439 158.74050903 C77.33133789 157.86249634 76.85817139 156.98448364 76.3706665 156.0798645 C73.25188581 150.2565203 70.27046233 144.37112291 67.36016846 138.44143677 C64.10986707 131.86371646 60.56531372 125.45446911 57.02667236 119.02859497 C52.49962541 110.78031826 48.15473025 102.44350265 43.87017822 94.06692505 C41.29817156 89.06848145 38.63695078 84.17244038 35.75372314 79.34597778 C32.00240182 72.98731473 28.90669556 66.399959 25.86700439 59.67800903 C25.33462158 58.51720825 24.80223877 57.35640747 24.25372314 56.16043091 C20.40980757 47.74391857 20.40980757 47.74391857 19.24200439 44.24050903 C19.24476977 44.91288259 19.24753515 45.58525614 19.25038433 46.27800465 C19.31659515 62.62728619 19.36626103 78.97652535 19.39744091 95.32590961 C19.41291948 103.23230614 19.43402781 111.13861325 19.46832275 119.04495239 C19.49819493 125.93494433 19.5175722 132.82487153 19.52426988 139.71492642 C19.52818587 143.36425011 19.53740928 147.01338856 19.55919456 150.66265297 C19.5832994 154.73336684 19.5839758 158.80375727 19.58258057 162.87454224 C19.59336639 164.08870316 19.60415222 165.30286407 19.61526489 166.55381775 C19.6090789 168.21338501 19.6090789 168.21338501 19.60276794 169.90647888 C19.60553332 170.86975255 19.6082987 171.83302622 19.61114788 172.82549 C19.17355041 175.68835027 18.54646297 176.53928111 16.24200439 178.24050903 C11.8189924 179.71484636 7.49982112 179.42487875 2.86700439 179.42800903 C1.92083252 179.44025513 0.97466064 179.45250122 -0.00018311 179.46511841 C-8.70567774 179.48345864 -8.70567774 179.48345864 -12.75799561 177.24050903 C-14.62502558 175.37347906 -13.89657707 172.22805033 -13.90516663 169.73800659 C-13.90884331 169.05055965 -13.91252 168.3631127 -13.9163081 167.65483403 C-13.92738675 165.33410112 -13.93119583 163.01341292 -13.93499756 160.69265747 C-13.94125912 159.03561764 -13.94790564 157.37857922 -13.95491028 155.72154236 C-13.97235006 151.20695193 -13.98288036 146.69237211 -13.99111581 142.17775631 C-13.99626017 139.35902406 -14.00233619 136.54029515 -14.00862694 133.72156525 C-14.02768822 124.90787995 -14.04191676 116.09420308 -14.05023891 107.28050113 C-14.06001259 97.09667177 -14.08633158 86.91305971 -14.1267398 76.72930694 C-14.15687611 68.86515292 -14.17170546 61.00106125 -14.17501992 53.1368506 C-14.17737349 48.43670418 -14.18637331 43.73678964 -14.21148109 39.03670502 C-14.23472311 34.61422269 -14.23901075 30.19212552 -14.22871971 25.76959801 C-14.22822327 24.14622659 -14.23457546 22.52283647 -14.24827576 20.89952278 C-14.26593689 18.68286705 -14.25891857 16.46760215 -14.2457428 14.25094604 C-14.24813115 13.01058971 -14.2505195 11.77023338 -14.25298023 10.4922905 C-13.65870451 6.58822022 -12.54976082 4.99118344 -9.75799561 2.24050903 C-6.54956156 0.03809359 -3.83946118 -0.00693044 0 0 Z " fill="#5A8E5F" transform="translate(15.75799560546875,2.759490966796875)"/>
<path d="M0 0 C1.00708008 0.00418945 2.01416016 0.00837891 3.05175781 0.01269531 C10.97672888 0.13226951 18.13169541 1.01021081 25.75 3.3125 C26.75417969 3.60253906 27.75835937 3.89257812 28.79296875 4.19140625 C34.58513572 6.05959506 40.1758813 8.1334994 43.75 13.3125 C44.65265637 17.59274189 44.50319032 21.70881704 44.3125 26.0625 C44.29767578 27.21105469 44.28285156 28.35960938 44.26757812 29.54296875 C44.07359008 37.98890992 44.07359008 37.98890992 41.75 40.3125 C36.38607145 40.03471332 32.15669997 38.32970134 27.4375 35.9375 C15.80277975 30.34092607 4.80273227 26.91223273 -8.29296875 30.0390625 C-14.35219685 32.24079088 -17.36223248 34.91451846 -20.5 40.5625 C-22.05185403 46.25263145 -22.22630988 51.26890992 -19.25 56.5 C-12.48939255 65.91656037 -1.46323351 69.7021035 8.75 74.3125 C22.8291662 80.6938798 35.05414945 86.81446066 45.75 98.3125 C46.74554572 99.31693452 47.74373059 100.31880896 48.75 101.3125 C48.97042969 100.60996094 49.19085938 99.90742187 49.41796875 99.18359375 C53.85430933 89.62139338 63.44893743 83.24566011 72.83984375 79.30078125 C78.48738229 77.38289232 83.64970583 77.12988257 89.5625 77.125 C90.71588867 77.10663086 90.71588867 77.10663086 91.89257812 77.08789062 C103.55045682 77.05837701 113.45906524 80.88550697 122 88.875 C130.93558013 98.27494887 133.93497424 107.96791063 133.875 120.5625 C133.87886719 121.39007813 133.88273438 122.21765625 133.88671875 123.0703125 C133.87669335 129.18580665 133.87669335 129.18580665 132.75 130.3125 C130.52899704 130.41019308 128.30516525 130.44456406 126.08203125 130.453125 C124.69985348 130.47146558 123.3176916 130.49103703 121.93554688 130.51171875 C119.75420629 130.54059771 117.57387762 130.56249744 115.39233398 130.56298828 C113.28798453 130.56634259 111.18597192 130.60101508 109.08203125 130.640625 C107.82108643 130.6499707 106.5601416 130.65931641 105.26098633 130.66894531 C100.69472183 131.50592975 99.15786017 133.23466609 95.75 136.3125 C91.33905834 137.02140134 89.36427203 136.64861111 85.4375 134.5 C82.54493677 132.14558807 80.96911821 130.54770621 80.30859375 126.82421875 C79.99536831 119.51899322 79.99536831 119.51899322 82.03515625 116.2578125 C85.04253344 113.39429618 87.70022005 111.95635794 91.875 111.75 C95.72337018 112.30863438 97.7335147 112.91705579 100.75 115.3125 C101.74 116.7975 101.74 116.7975 102.75 118.3125 C105.359621 118.69661275 107.7558074 118.91543197 110.375 119 C111.08140625 119.03416016 111.7878125 119.06832031 112.515625 119.10351562 C114.25985688 119.18601308 116.00490395 119.25093335 117.75 119.3125 C115.27894957 108.48193853 113.09677561 100.95453102 103.75 94.3125 C97.00157753 90.79309895 87.52569076 91.51655154 80.171875 92.7421875 C73.47802157 94.87684155 68.69940797 100.15718306 65.4375 106.1875 C62.22569403 113.5305007 61.42220557 120.86450234 61.5 128.8125 C61.49226563 129.60269531 61.48453125 130.39289063 61.4765625 131.20703125 C61.50981617 141.36602629 63.66683364 151.62063515 70.609375 159.39453125 C77.72429244 165.9441161 84.07510642 167.86172154 93.5625 167.75 C94.44671631 167.74315186 95.33093262 167.73630371 96.24194336 167.72924805 C102.56495823 167.57363509 108.43568191 167.07377536 113.75 163.3125 C115.74083177 160.8873212 115.74083177 160.8873212 116.75 158.3125 C118.4433667 156.13156952 119.30884662 155.39549665 122.0546875 154.87890625 C129.02449593 154.86831384 129.02449593 154.86831384 132.8125 157.1875 C135.99887908 160.68223835 136.2262142 163.3769075 136.14453125 167.98828125 C135.57182231 171.36216067 134.27360785 172.98366387 131.703125 175.17578125 C128.76068107 176.88828362 125.88021602 177.32684146 122.5390625 177.81640625 C118.40103475 178.552442 114.55804048 179.99610712 110.609375 181.41015625 C97.67137725 185.49304898 81.04733226 184.93065887 68.75 179.3125 C59.46795081 174.3649254 52.87871579 167.41183447 47.75 158.3125 C47.04617188 159.158125 46.34234375 160.00375 45.6171875 160.875 C38.62106441 169.01592139 31.70421139 175.04383854 21.75 179.3125 C20.97261475 179.67005371 20.19522949 180.02760742 19.39428711 180.39599609 C10.17378918 184.09536068 0.96672109 183.92087582 -8.81274414 183.83398438 C-11.67876041 183.81256531 -14.54226348 183.83385417 -17.40820312 183.859375 C-32.19521951 183.88237042 -44.67837522 181.78799747 -57.25 173.3125 C-62.52711349 167.78409539 -62.45874604 163.81742131 -62.5 156.5 C-62.520625 155.59701172 -62.54125 154.69402344 -62.5625 153.76367188 C-62.5918246 148.77482478 -62.49296407 145.38327332 -59.25 141.3125 C-53.76102778 141.78218217 -49.93436857 143.31467119 -45.1875 146.125 C-30.85152936 154.05990839 -15.11350746 156.97804637 1.10546875 153.6171875 C7.44128359 151.33591075 12.10611728 147.60026544 15.125 141.5625 C16.21154028 135.91249053 16.48486506 130.65488238 14.75 125.125 C7.29087732 114.63560873 -4.82491118 110.29117505 -16.125 105.05078125 C-34.84001469 96.35222726 -49.13257576 88.05515507 -57.25 68.3125 C-61.55102026 55.75352084 -60.34704071 40.04650152 -54.73828125 28.08984375 C-48.04282727 15.9477508 -38.82752295 8.158337 -25.625 3.5 C-17.05732219 1.07861057 -8.90809795 -0.05093766 0 0 Z " fill="#6C9A70" transform="translate(343.25,-0.3125)"/>
<path d="M0 0 C0.88815903 -0.00043808 1.77631805 -0.00087616 2.69139099 -0.00132751 C5.62423763 0.0007609 8.55651115 0.02409457 11.48925781 0.04760742 C13.52378019 0.05320318 15.55830661 0.05747338 17.59283447 0.06047058 C22.94573135 0.07192087 28.29838375 0.10138979 33.65118408 0.13458252 C39.1141021 0.16527933 44.57705965 0.1789751 50.04003906 0.1940918 C60.75759435 0.22625919 71.47496825 0.27745791 82.19238281 0.34057617 C85.57207321 6.89716647 85.57207321 6.89716647 85.55566406 10.46948242 C85.55469727 11.55712891 85.55469727 11.55712891 85.55371094 12.66674805 C85.53759766 13.40473633 85.52148438 14.14272461 85.50488281 14.90307617 C85.50810547 15.64493164 85.51132812 16.38678711 85.51464844 17.15112305 C85.46347518 22.37544743 85.04693092 26.48602806 81.19238281 30.34057617 C78.67404175 30.58108521 78.67404175 30.58108521 75.45751953 30.56762695 C74.25642548 30.56747589 73.05533142 30.56732483 71.81784058 30.56716919 C70.51573639 30.55684662 69.2136322 30.54652405 67.87207031 30.53588867 C66.52971609 30.53215894 65.18735914 30.52931178 63.84500122 30.52731323 C60.31036881 30.51967361 56.77590053 30.50002247 53.24133301 30.47790527 C49.63519552 30.45745382 46.02903075 30.44820352 42.42285156 30.43823242 C35.34588365 30.4178377 28.26936655 30.37869278 21.19238281 30.34057617 C21.19238281 46.18057617 21.19238281 62.02057617 21.19238281 78.34057617 C25.27226562 78.29416992 29.35214844 78.24776367 33.55566406 78.19995117 C36.80787922 78.17422906 40.06006565 78.15253739 43.31232452 78.13357544 C46.74610284 78.112448 50.17948658 78.0842146 53.61303711 78.03881836 C57.55219773 77.98706292 61.491197 77.9676338 65.43066406 77.94995117 C67.27764641 77.91898346 67.27764641 77.91898346 69.16194153 77.88739014 C70.3028978 77.88708801 71.44385406 77.88678589 72.61938477 77.88647461 C74.12829033 77.87315094 74.12829033 77.87315094 75.66767883 77.85955811 C78.19238281 78.34057617 78.19238281 78.34057617 80.01643372 80.22406006 C81.40851583 82.72958026 81.57922694 84.32904304 81.59082031 87.18432617 C81.5946875 88.10084961 81.59855469 89.01737305 81.60253906 89.96166992 C81.5909375 90.91170898 81.57933594 91.86174805 81.56738281 92.84057617 C81.57898438 93.79061523 81.59058594 94.7406543 81.60253906 95.71948242 C81.59867187 96.63600586 81.59480469 97.5525293 81.59082031 98.49682617 C81.58743652 99.33020508 81.58405273 100.16358398 81.58056641 101.0222168 C81.08873187 103.95961352 80.26292814 105.20256635 78.19238281 107.34057617 C75.66767883 107.82159424 75.66767883 107.82159424 72.61938477 107.79467773 C70.8840448 107.79395264 70.8840448 107.79395264 69.11364746 107.79321289 C67.89826294 107.77274902 66.68287842 107.75228516 65.43066406 107.73120117 C63.75441956 107.72515869 63.75441956 107.72515869 62.04431152 107.71899414 C57.86433527 107.69804401 53.68459279 107.64219868 49.50488281 107.59057617 C40.16175781 107.50807617 30.81863281 107.42557617 21.19238281 107.34057617 C21.19238281 130.11057617 21.19238281 152.88057617 21.19238281 176.34057617 C13.30372516 179.72142945 13.30372516 179.72142945 8.43457031 179.73901367 C7.396875 179.74288086 6.35917969 179.74674805 5.29003906 179.75073242 C4.2265625 179.73913086 3.16308594 179.7275293 2.06738281 179.71557617 C0.99617188 179.72717773 -0.07503906 179.7387793 -1.17871094 179.75073242 C-2.73138672 179.74493164 -2.73138672 179.74493164 -4.31542969 179.73901367 C-5.25016113 179.73562988 -6.18489258 179.73224609 -7.14794922 179.72875977 C-10.60857458 179.22367492 -13.31800242 177.83019094 -15.80761719 175.34057617 C-15.91113687 173.20037526 -15.94285215 171.05669817 -15.94805908 168.91400146 C-15.9510302 168.23472162 -15.95400133 167.55544178 -15.95706248 166.85557771 C-15.96578548 164.56247903 -15.96726076 162.26943235 -15.96875 159.97631836 C-15.97337572 158.33898303 -15.97840004 156.70164878 -15.98379517 155.0643158 C-15.99694693 150.60343818 -16.00336978 146.14257562 -16.00780582 141.68168163 C-16.01073273 138.89645114 -16.01483685 136.11122481 -16.01931 133.3259964 C-16.03299366 124.61696 -16.04265545 115.90793305 -16.04651189 107.19888663 C-16.05099173 97.13621725 -16.06853255 87.07368376 -16.09751248 77.01105571 C-16.11911683 69.24031823 -16.12921554 61.46961902 -16.13055301 53.69885182 C-16.13160215 49.05464161 -16.1375327 44.41055898 -16.15537262 39.76638031 C-16.17183126 35.396473 -16.17401958 31.02678948 -16.16523361 26.65686226 C-16.16446199 25.05284845 -16.16882245 23.44882273 -16.17869186 21.8448391 C-16.19137764 19.6546538 -16.18555354 17.46526505 -16.17510986 15.27508545 C-16.17657642 14.04947781 -16.17804298 12.82387016 -16.17955399 11.56112289 C-15.68178159 7.25098403 -14.05512917 4.70559038 -11.17059326 1.54936218 C-7.56110377 -0.29708072 -3.96011159 -0.05105946 0 0 Z " fill="#5B8F60" transform="translate(188.8076171875,2.659423828125)"/>
<path d="M0 0 C0.76892578 -0.01224609 1.53785156 -0.02449219 2.33007812 -0.03710938 C13.98795682 -0.06662299 23.89656524 3.76050697 32.4375 11.75 C41.37308013 21.14994887 44.37247424 30.84291063 44.3125 43.4375 C44.31636719 44.26507813 44.32023437 45.09265625 44.32421875 45.9453125 C44.31419335 52.06080665 44.31419335 52.06080665 43.1875 53.1875 C40.96649704 53.28519308 38.74266525 53.31956406 36.51953125 53.328125 C35.13735348 53.34646558 33.7551916 53.36603703 32.37304688 53.38671875 C30.19170629 53.41559771 28.01137762 53.43749744 25.82983398 53.43798828 C23.72548453 53.44134259 21.62347192 53.47601508 19.51953125 53.515625 C18.25858643 53.5249707 16.9976416 53.53431641 15.69848633 53.54394531 C11.13222183 54.38092975 9.59536017 56.10966609 6.1875 59.1875 C1.77655834 59.89640134 -0.19822797 59.52361111 -4.125 57.375 C-7.01756323 55.02058807 -8.59338179 53.42270621 -9.25390625 49.69921875 C-9.56713169 42.39399322 -9.56713169 42.39399322 -7.52734375 39.1328125 C-4.51996656 36.26929618 -1.86227995 34.83135794 2.3125 34.625 C6.16087018 35.18363438 8.1710147 35.79205579 11.1875 38.1875 C11.8475 39.1775 12.5075 40.1675 13.1875 41.1875 C15.797121 41.57161275 18.1933074 41.79043197 20.8125 41.875 C21.51890625 41.90916016 22.2253125 41.94332031 22.953125 41.97851562 C24.69735688 42.06101308 26.44240395 42.12593335 28.1875 42.1875 C25.71644957 31.35693853 23.53427561 23.82953102 14.1875 17.1875 C7.43907753 13.66809895 -2.03680924 14.39155154 -9.390625 15.6171875 C-16.08447843 17.75184155 -20.86309203 23.03218306 -24.125 29.0625 C-27.33680597 36.4055007 -28.14029443 43.73950234 -28.0625 51.6875 C-28.07023437 52.47769531 -28.07796875 53.26789063 -28.0859375 54.08203125 C-28.05268383 64.24102629 -25.89566636 74.49563515 -18.953125 82.26953125 C-11.83820756 88.8191161 -5.48739358 90.73672154 4 90.625 C4.88421631 90.61815186 5.76843262 90.61130371 6.67944336 90.60424805 C13.00245823 90.44863509 18.87318191 89.94877536 24.1875 86.1875 C26.17833177 83.7623212 26.17833177 83.7623212 27.1875 81.1875 C28.8808667 79.00656952 29.74634662 78.27049665 32.4921875 77.75390625 C39.46199593 77.74331384 39.46199593 77.74331384 43.25 80.0625 C46.43637908 83.55723835 46.6637142 86.2519075 46.58203125 90.86328125 C46.00932231 94.23716067 44.71110785 95.85866387 42.140625 98.05078125 C39.19818107 99.76328362 36.31771602 100.20184146 32.9765625 100.69140625 C28.83853475 101.427442 24.99554048 102.87110712 21.046875 104.28515625 C8.10887725 108.36804898 -8.51516774 107.80565887 -20.8125 102.1875 C-28.88337789 97.88551132 -36.54614126 91.37890879 -40.8125 83.1875 C-41.51720149 77.65055973 -40.09040008 74.18135786 -37.8125 69.1875 C-36.09106938 63.36207898 -35.42633702 58.06335757 -35.4375 52 C-35.43766113 51.1742749 -35.43782227 50.3485498 -35.43798828 49.49780273 C-35.58498337 41.53299001 -37.08086761 34.06730933 -41.01953125 27.03125 C-41.8125 25.1875 -41.8125 25.1875 -40.625 22.125 C-33.59032342 11.24470023 -24.00227802 3.9696337 -11.48046875 0.55078125 C-7.64881688 0.02904827 -3.8628624 0.00318981 0 0 Z " fill="#36458A" transform="translate(432.8125,76.8125)"/>
<path d="M0 0 C13.2 0 26.4 0 40 0 C40.66 3.63 41.32 7.26 42 11 C43.04020682 14.00786816 43.04020682 14.00786816 44.375 16.375 C44.77460937 17.14585938 45.17421875 17.91671875 45.5859375 18.7109375 C48.55159024 23.51169027 51.57787509 26.69769526 56.375 29.6875 C57.29023437 30.26886719 58.20546875 30.85023437 59.1484375 31.44921875 C63.97196916 34.07242706 68.42030262 35.2258758 73.875 35.625 C74.84179688 35.69976562 75.80859375 35.77453125 76.8046875 35.8515625 C77.52914062 35.90054688 78.25359375 35.94953125 79 36 C80.26018101 45.70644611 80.12682029 55.36457557 80.09765625 65.1328125 C80.09578819 66.97940024 80.09436612 68.82598849 80.09336853 70.6725769 C80.08957388 75.50249633 80.07977009 80.33238507 80.06866455 85.16229248 C80.05838438 90.10298243 80.05385683 95.04367741 80.04882812 99.984375 C80.03814472 109.65626339 80.0211055 119.32812913 80 129 C77.01276743 127.50638371 76.26108475 124.77900222 74.875 121.875 C70.77129255 113.4875285 66.53015546 105.17336505 62.25 96.875 C61.90097626 96.19791992 61.55195251 95.52083984 61.19235229 94.82324219 C56.42090641 85.57631145 51.54018816 76.40090304 46.51098633 67.29101562 C42.34977912 59.7218688 38.38550778 52.05649035 34.4375 44.375 C29.9771074 35.70570774 25.48627083 27.05692958 20.8125 18.5 C20.37929443 17.69997559 19.94608887 16.89995117 19.49975586 16.07568359 C16.28062536 10.23537975 13.25920236 4.91125691 7 2 C3.30476048 1.28076792 3.30476048 1.28076792 0 1 C0 0.67 0 0.34 0 0 Z " fill="#E5C03D" transform="translate(38,3)"/>
<path d="M0 0 C23.43 0 46.86 0 71 0 C71 10.84270683 68.02655173 19.20330056 60.32421875 27.01953125 C50.60967561 35.29730163 40.64028944 36.20178872 28.32592773 35.33422852 C20.11637469 34.15454151 13.35871638 29.94985046 8.046875 23.703125 C2.23746197 15.8433309 0 9.7881504 0 0 Z " fill="#354388" transform="translate(78,3)"/>
<path d="M0 0 C1.25683594 0.00322266 2.51367188 0.00644531 3.80859375 0.00976562 C5.12730469 0.01814453 6.44601563 0.02652344 7.8046875 0.03515625 C9.14452961 0.04017136 10.4843735 0.04473424 11.82421875 0.04882812 C15.10941956 0.06064539 18.39453147 0.07712008 21.6796875 0.09765625 C22.01148491 9.73014986 19.2390755 17.39378447 13.1171875 24.97265625 C8.32634901 29.94462285 1.61281334 34.75917411 -5.4765625 35.24560547 C-7.42509953 35.24946481 -9.3734901 35.17947314 -11.3203125 35.09765625 C-11.39449296 30.73774752 -11.44892794 26.37817346 -11.48510742 22.01782227 C-11.50019018 20.53468426 -11.52065939 19.05159081 -11.54663086 17.56860352 C-11.58303866 15.4362488 -11.60004323 13.3044839 -11.61328125 11.171875 C-11.6289917 9.88885498 -11.64470215 8.60583496 -11.66088867 7.28393555 C-11.3203125 4.09765625 -11.3203125 4.09765625 -9.92700195 2.21801758 C-6.52646325 -0.15321356 -4.12227867 -0.01856882 0 0 Z " fill="#465493" transform="translate(127.3203125,2.90234375)"/>
<path d="M0 0 C0.99 0.33 1.98 0.66 3 1 C4.1328125 3.36328125 4.1328125 3.36328125 5.125 6.3125 C5.45757812 7.27800781 5.79015625 8.24351563 6.1328125 9.23828125 C10.16714809 22.086368 8.72896054 35.56391675 4 48 C3.5662196 49.43242868 3.14598435 50.86916575 2.75 52.3125 C2.5025 53.199375 2.255 54.08625 2 55 C-0.43974448 52.56025552 -0.98405923 50.5806266 -2.0625 47.3125 C-2.40410156 46.29800781 -2.74570312 45.28351563 -3.09765625 44.23828125 C-7.31712496 29.09568576 -5.5097772 14.44348736 0 0 Z " fill="#558564" transform="translate(390,103)"/>
</svg>
